2644ceac530c074d638cc087f2045251 *tests/data/fate/pcm_dvd-16-7.1-48000.vob
126976 tests/data/fate/pcm_dvd-16-7.1-48000.vob
#tb 0: 1/48000
#media_type 0: audio
#codec_id 0: pcm_s16le
#sample_rate 0: 48000
#channel_layout_name 0: 7.1
0,          0,          0,      124,     1984, 0x9d57fb8d
0,        125,        125,      125,     2000, 0x5d98ca5b
0,        250,        250,      125,     2000, 0xcf47f872
0,        375,        375,      125,     2000, 0xd0b9c223
0,        500,        500,      125,     2000, 0xf929e0e2
0,        625,        625,      125,     2000, 0xc893f22c
0,        750,        750,      125,     2000, 0x8843fafa
0,        875,        875,      125,     2000, 0xb7e30a8e
0,       1000,       1000,      125,     2000, 0xe4fddc6b
0,       1125,       1125,      125,     2000, 0x5bd70b66
0,       1250,       1250,      125,     2000, 0x9252e2e8
0,       1375,       1375,      125,     2000, 0x1baaff6a
0,       1500,       1500,      125,     2000, 0xd363b522
0,       1625,       1625,      125,     2000, 0xfafe00a4
0,       1750,       1750,      125,     2000, 0x0980dc2c
0,       1875,       1875,      125,     2000, 0xb0e5128c
0,       2000,       2000,      125,     2000, 0xd8a0ddc5
0,       2125,       2125,      125,     2000, 0xffb8e1b4
0,       2250,       2250,      125,     2000, 0x1842ea9a
0,       2375,       2375,      125,     2000, 0x35c6e4d3
0,       2500,       2500,      125,     2000, 0xa245009c
0,       2625,       2625,      125,     2000, 0x7daef475
0,       2750,       2750,      125,     2000, 0x85d4fe0b
0,       2875,       2875,      125,     2000, 0x2000ec85
0,       3000,       3000,      125,     2000, 0x56c9d7a0
0,       3125,       3125,      125,     2000, 0x8edae018
0,       3250,       3250,      125,     2000, 0x5345ec09
0,       3375,       3375,      125,     2000, 0xe888ee0d
0,       3500,       3500,      125,     2000, 0xa8c10d13
0,       3625,       3625,      125,     2000, 0x4089fd76
0,       3750,       3750,      125,     2000, 0xf3371321
0,       3875,       3875,      125,     2000, 0x50450212
0,       4000,       4000,      125,     2000, 0x75eef816
0,       4125,       4125,      125,     2000, 0xfd94ea7b
0,       4250,       4250,      125,     2000, 0xd20ec50a
0,       4375,       4375,      125,     2000, 0x4f2c0871
0,       4500,       4500,      125,     2000, 0x441deee4
0,       4625,       4625,      125,     2000, 0xd94d0924
0,       4750,       4750,      125,     2000, 0xe5d0c8e6
0,       4875,       4875,      125,     2000, 0x0166dd90
0,       5000,       5000,      124,     1984, 0x8d0ede76
0,       5125,       5125,      125,     2000, 0xdf0edb96
0,       5250,       5250,      125,     2000, 0xf53bf7db
0,       5375,       5375,      125,     2000, 0x8895ee37
0,       5500,       5500,      125,     2000, 0xaac3f939
0,       5625,       5625,      125,     2000, 0x6ca311ed
0,       5750,       5750,      125,     2000, 0x7311d6c3
0,       5875,       5875,      125,     2000, 0x3facdca1
0,       6000,       6000,      125,     2000, 0xbfa9f8cb
0,       6125,       6125,      125,     2000, 0x1ef8cbd5
0,       6250,       6250,      125,     2000, 0x835ff155
0,       6375,       6375,      125,     2000, 0x76bd08d9
0,       6500,       6500,      125,     2000, 0xe363d4b1
0,       6625,       6625,      125,     2000, 0x7d22efc6
0,       6750,       6750,      125,     2000, 0x6796cd13
0,       6875,       6875,      125,     2000, 0x7255e228
0,       7000,       7000,      125,     2000, 0x68fbe3f5
0,       7125,       7125,      125,     2000, 0x901ffed7
0,       7250,       7250,      125,     2000, 0xe9bbe07e
0,       7375,       7375,      125,     2000, 0xe4850e2b
0,       7500,       7500,      125,     2000, 0xca99f73a
0,       7625,       7625,       57,      912, 0x82c3c85e
